<?xml version="1.0" encoding="UTF-8" standalone="no"?>
<!-- Generator: Adobe Illustrator 16.0.0, SVG Export Plug-In . SVG Version: 6.00 Build 0)  -->

<svg
   xmlns:osb="http://www.openswatchbook.org/uri/2009/osb"
   xmlns:dc="http://purl.org/dc/elements/1.1/"
   xmlns:cc="http://creativecommons.org/ns#"
   xmlns:rdf="http://www.w3.org/1999/02/22-rdf-syntax-ns#"
   xmlns:svg="http://www.w3.org/2000/svg"
   xmlns="http://www.w3.org/2000/svg"
   xmlns:sodipodi="http://sodipodi.sourceforge.net/DTD/sodipodi-0.dtd"
   xmlns:inkscape="http://www.inkscape.org/namespaces/inkscape"
   version="1.1"
   id="Capa_1"
   x="0px"
   y="0px"
   width="512px"
   height="512px"
   viewBox="0 0 612 612"
   style="enable-background:new 0 0 612 612;"
   xml:space="preserve"
   sodipodi:docname="logo.svg"
   inkscape:version="0.92.4 (5da689c313, 2019-01-14)"><metadata
   id="metadata41"><rdf:RDF><cc:Work
       rdf:about=""><dc:format>image/svg+xml</dc:format><dc:type
         rdf:resource="http://purl.org/dc/dcmitype/StillImage" /><dc:title /></cc:Work></rdf:RDF></metadata><defs
   id="defs39"><linearGradient
   id="linearGradient4589"
   osb:paint="solid"><stop
     style="stop-color:#a2b0c1;stop-opacity:1;"
     offset="0"
     id="stop4587" /></linearGradient>
	
</defs><sodipodi:namedview
   pagecolor="#ffffff"
   bordercolor="#666666"
   borderopacity="1"
   objecttolerance="10"
   gridtolerance="10"
   guidetolerance="10"
   inkscape:pageopacity="0"
   inkscape:pageshadow="2"
   inkscape:window-width="1920"
   inkscape:window-height="1001"
   id="namedview37"
   showgrid="false"
   inkscape:zoom="1.5781236"
   inkscape:cx="151.76228"
   inkscape:cy="255.99981"
   inkscape:window-x="-9"
   inkscape:window-y="-9"
   inkscape:window-maximized="1"
   inkscape:current-layer="Capa_1"
   inkscape:pagecheckerboard="true" />
<path
   style="fill:#a9dde0;stroke-width:0.83660132;fill-opacity:1"
   d="M 17.076172 156.85156 C 8.5342903 156.68104 0.81613899 163.53499 0.83789062 172.83789 L 1.3886719 405.53125 C 1.4028941 411.89779 5.2048944 417.64421 11.058594 420.14648 L 222.89062 510.70117 C 233.41842 515.20125 245.11661 507.46033 245.08984 496.00977 L 244.53906 263.31641 C 244.524 256.95071 240.72284 251.2054 234.86914 248.70312 L 23.035156 158.14844 C 21.061195 157.30467 19.047375 156.89091 17.076172 156.85156 z M 23.542969 184.57031 L 219.02539 269.23047 L 218.51758 484.57812 L 23.033203 399.91602 L 23.542969 184.57031 z "
   transform="scale(1.1953125)"
   id="path4577" /><path
   style="fill:#a9dde0;stroke-width:0.83660132;fill-opacity:1"
   d="M 254.39648 0 C 252.19288 0.0050196078 249.99108 0.46701399 247.93555 1.3847656 L 25.53125 100.6875 C 12.915302 106.32034 12.956054 124.24687 25.599609 129.82031 L 248.47266 228.06836 C 250.53237 228.97607 252.73557 229.42689 254.9375 229.42188 C 257.14027 229.41602 259.34179 228.95681 261.39648 228.03906 L 483.80273 128.73438 C 496.41952 123.10154 496.37709 105.17779 483.73438 99.603516 L 260.86133 1.3535156 C 258.80162 0.44580321 256.59842 -0.0050196078 254.39648 0 z M 254.45312 24.650391 L 457.66016 114.23047 L 254.87891 204.77148 L 51.673828 115.19336 L 254.45312 24.650391 z "
   transform="scale(1.1953125)"
   id="path2" />
<g
   id="g6">
</g>
<g
   id="g8">
</g>
<g
   id="g10">
</g>
<g
   id="g12">
</g>
<g
   id="g14">
</g>
<g
   id="g16">
</g>
<g
   id="g18">
</g>
<g
   id="g20">
</g>
<g
   id="g22">
</g>
<g
   id="g24">
</g>
<g
   id="g26">
</g>
<g
   id="g28">
</g>
<g
   id="g30">
</g>
<g
   id="g32">
</g>
<g
   id="g34">
</g>
<path
   style="fill:#a9dde0;fill-opacity:1;stroke:none;stroke-width:0.83660132;stroke-opacity:1"
   d="M 494.64844 155.7168 C 492.56614 155.72182 490.43135 156.14251 488.3457 157.04688 L 276.94336 248.60352 C 271.10054 251.13256 267.3259 256.89602 267.3418 263.26172 L 267.89062 495.95703 C 267.91154 505.13204 275.45265 511.89034 283.85547 511.87109 C 285.9361 511.86524 288.07451 511.44371 290.16016 510.54102 L 501.56055 418.98438 C 507.40253 416.45533 511.17717 410.69187 511.16211 404.32617 L 510.61133 171.63086 C 510.59041 162.45502 503.05042 155.69588 494.64844 155.7168 z M 486.73828 183.79102 L 487.24805 399.13672 L 291.76562 483.79688 L 291.25586 268.45117 L 486.73828 183.79102 z "
   transform="scale(1.1953125)"
   id="path4573" /></svg>