<?xml version="1.0" encoding="UTF-8" standalone="no"?>
<!-- Generator: Adobe Illustrator 16.0.0, SVG Export Plug-In . SVG Version: 6.00 Build 0)  -->

<svg
   xmlns:osb="http://www.openswatchbook.org/uri/2009/osb"
   xmlns:dc="http://purl.org/dc/elements/1.1/"
   xmlns:cc="http://creativecommons.org/ns#"
   xmlns:rdf="http://www.w3.org/1999/02/22-rdf-syntax-ns#"
   xmlns:svg="http://www.w3.org/2000/svg"
   xmlns="http://www.w3.org/2000/svg"
   xmlns:sodipodi="http://sodipodi.sourceforge.net/DTD/sodipodi-0.dtd"
   xmlns:inkscape="http://www.inkscape.org/namespaces/inkscape"
   version="1.1"
   id="Capa_1"
   x="0px"
   y="0px"
   width="512px"
   height="512px"
   viewBox="0 0 612 612"
   style="enable-background:new 0 0 612 612;"
   xml:space="preserve"
   sodipodi:docname="logo_solid.svg"
   inkscape:version="0.92.4 (5da689c313, 2019-01-14)"><metadata
   id="metadata41"><rdf:RDF><cc:Work
       rdf:about=""><dc:format>image/svg+xml</dc:format><dc:type
         rdf:resource="http://purl.org/dc/dcmitype/StillImage" /><dc:title /></cc:Work></rdf:RDF></metadata><defs
   id="defs39"><linearGradient
   id="linearGradient4589"
   osb:paint="solid"><stop
     style="stop-color:#a2b0c1;stop-opacity:1;"
     offset="0"
     id="stop4587" /></linearGradient>
	
</defs><sodipodi:namedview
   pagecolor="#ffffff"
   bordercolor="#666666"
   borderopacity="1"
   objecttolerance="10"
   gridtolerance="10"
   guidetolerance="10"
   inkscape:pageopacity="0"
   inkscape:pageshadow="2"
   inkscape:window-width="1920"
   inkscape:window-height="1001"
   id="namedview37"
   showgrid="false"
   inkscape:zoom="1.5781236"
   inkscape:cx="256"
   inkscape:cy="255.99981"
   inkscape:window-x="-9"
   inkscape:window-y="-9"
   inkscape:window-maximized="1"
   inkscape:current-layer="Capa_1" />
<path
   style="fill:#a9dde0;fill-opacity:1"
   d="M 1.659,484.737 1.001,206.595 c -0.032,-13.686 13.95,-22.938 26.534,-17.559 l 253.206,108.241 c 6.997,2.991 11.542,9.859 11.56,17.468 l 0.658,278.142 c 0.032,13.687 -13.95,22.939 -26.534,17.56 L 13.219,502.206 C 6.222,499.215 1.676,492.347 1.659,484.737 Z"
   id="path4577" /><path
   style="fill:#a2b0c1"
   d="M 304.152,29.466 61.767,137.691 304.661,244.766 547.047,136.542 304.152,29.466"
   id="path4571" /><path
   style="fill:#a9dde0;fill-opacity:1"
   d="m 304.083,0 c 2.632,-0.006 5.266,0.533 7.728,1.618 l 266.403,117.439 c 15.112,6.663 15.163,28.088 0.082,34.821 L 312.451,272.577 c -2.456,1.097 -5.088,1.648 -7.721,1.655 -2.632,0.006 -5.266,-0.533 -7.728,-1.618 L 30.6,155.175 C 15.487,148.513 15.437,127.087 30.517,120.354 L 296.361,1.655 C 298.818,0.558 301.449,0.006 304.083,0 Z"
   id="path2" />
<g
   id="g6">
</g>
<g
   id="g8">
</g>
<g
   id="g10">
</g>
<g
   id="g12">
</g>
<g
   id="g14">
</g>
<g
   id="g16">
</g>
<g
   id="g18">
</g>
<g
   id="g20">
</g>
<g
   id="g22">
</g>
<g
   id="g24">
</g>
<g
   id="g26">
</g>
<g
   id="g28">
</g>
<g
   id="g30">
</g>
<g
   id="g32">
</g>
<g
   id="g34">
</g>
<path
   style="fill:#a9dde0;fill-opacity:1;stroke:none;stroke-opacity:1"
   d="m 591.26,186.131 c 10.043,-0.025 19.056,8.054 19.081,19.022 l 0.658,278.142 c 0.018,7.609 -4.495,14.5 -11.478,17.523 l -252.69,109.438 c -2.493,1.079 -5.047,1.583 -7.534,1.59 -10.044,0.023 -19.058,-8.055 -19.083,-19.022 l -0.658,-278.143 c -0.019,-7.609 4.495,-14.5 11.479,-17.523 l 252.69,-109.437 c 2.493,-1.081 5.046,-1.584 7.535,-1.59 z"
   id="path4573"
   inkscape:connector-curvature="0" /></svg>